<?xml version="1.0" standalone="no"?>
<!DOCTYPE svg PUBLIC "-//W3C//DTD SVG 20010904//EN"
 "http://www.w3.org/TR/2001/REC-SVG-20010904/DTD/svg10.dtd">
<svg version="1.0" xmlns="http://www.w3.org/2000/svg"
 width="169.000000pt" height="169.000000pt" viewBox="0 0 169.000000 169.000000"
 preserveAspectRatio="xMidYMid meet">
<metadata>
Created by potrace 1.11, written by Peter Selinger 2001-2013
</metadata>
<g transform="translate(0.000000,169.000000) scale(0.100000,-0.100000)"
fill="#000000" stroke="none">
<path d="M547 1583 c-15 -60 -29 -115 -31 -123 -10 -38 -107 -292 -135 -353
-17 -38 -31 -74 -31 -81 0 -7 14 -27 32 -45 29 -29 35 -32 77 -27 25 3 91 8
146 12 123 7 124 7 121 36 -9 74 -15 77 -129 53 -40 -8 -86 -17 -104 -20 l-31
-5 10 37 c13 50 171 450 197 502 l21 40 -35 36 c-20 19 -40 35 -45 35 -4 0
-14 2 -22 5 -10 4 -21 -23 -41 -102z"/>
<path d="M1588 1685 c-5 -6 -189 -17 -275 -17 -68 0 -82 -3 -86 -16 -5 -27 15
-62 40 -68 13 -4 23 -11 23 -18 0 -28 -65 -196 -76 -196 -7 0 -25 -5 -41 -11
l-28 -11 28 -24 28 -24 -55 -136 c-53 -132 -54 -137 -38 -159 35 -47 59 -53
152 -41 47 7 127 11 178 10 l92 -1 0 29 c0 16 -5 38 -11 49 -9 18 -17 19 -62
14 -88 -11 -180 -24 -214 -31 -41 -8 -42 -2 -7 102 37 110 61 164 76 169 24 8
73 13 140 14 l66 1 -2 30 c-3 47 -19 55 -102 53 l-74 -3 24 48 c13 26 33 68
45 95 12 26 23 47 24 47 62 11 97 14 164 14 46 1 83 1 83 2 0 21 -27 65 -43
70 -29 10 -45 13 -49 9z"/>
<path d="M1081 1628 c-6 -13 -49 -144 -96 -293 -48 -148 -101 -315 -119 -370
l-33 -100 -351 -3 c-272 -2 -352 -5 -352 -15 0 -9 77 -12 345 -12 190 0 345
-3 345 -6 0 -3 -9 -32 -19 -65 -23 -72 -209 -648 -221 -686 -8 -24 -6 -28 9
-28 13 0 23 17 38 68 33 106 193 601 214 662 l20 55 349 0 c275 0 350 3 350
12 0 10 -74 13 -345 13 -190 0 -345 3 -345 6 0 3 54 175 121 382 66 208 122
381 122 386 4 20 -24 16 -32 -6z"/>
<path d="M1111 728 c-80 -9 -199 -44 -230 -67 -21 -16 -22 -21 -11 -42 30 -58
36 -59 93 -28 86 47 92 43 58 -48 -15 -43 -65 -164 -109 -269 -45 -105 -82
-195 -82 -201 0 -13 66 -73 80 -73 7 0 40 93 40 114 0 3 19 53 41 111 39 98
58 122 75 94 10 -17 120 -4 176 20 154 66 216 231 125 329 -52 56 -131 75
-256 60z m209 -79 c53 -20 70 -83 38 -141 -26 -45 -111 -93 -183 -103 -27 -4
-62 -9 -77 -11 -16 -2 -28 -1 -28 3 0 5 28 65 62 135 45 92 68 128 83 131 25
4 72 -2 105 -14z"/>
<path d="M279 726 c-2 -2 -22 -7 -44 -10 -59 -9 -162 -45 -175 -61 -13 -16 -7
-40 18 -72 l17 -22 69 34 c38 20 70 34 72 32 2 -1 -23 -54 -55 -117 -75 -147
-173 -393 -165 -413 10 -26 67 -64 120 -80 188 -56 442 103 420 262 -4 29 -17
59 -36 82 l-29 37 35 27 c69 53 91 163 46 225 -37 50 -98 74 -198 77 -50 1
-93 1 -95 -1z m219 -72 c59 -12 82 -86 41 -138 -35 -45 -95 -68 -194 -76 -49
-4 -91 -6 -93 -4 -2 1 23 51 54 112 52 102 59 111 88 114 31 3 62 1 104 -8z
m-5 -328 c22 -67 -32 -154 -125 -199 -74 -36 -181 -53 -227 -35 -26 9 -27 8
30 153 50 128 53 133 73 115 18 -14 133 -8 178 9 29 12 59 -6 71 -43z"/>
</g>
</svg>
